{
	"asset":{
		"generator":"Khronos glTF Blender I/O v3.6.27",
		"version":"2.0"
	},
	"scene":0,
	"scenes":[
		{
			"name":"Scene",
			"nodes":[
				0,
				1,
				2,
				3,
				4,
				5,
				6,
				7,
				8,
				9,
				10,
				11
			]
		}
	],
	"nodes":[
		{
			"mesh":0,
			"name":"Shuttle",
			"rotation":[
				0.7071068286895752,
				0,
				0,
				0.7071068286895752
			]
		},
		{
			"name":"center_engine_body",
			"scale":[
				0.28111302852630615,
				0.28111302852630615,
				0.28111302852630615
			],
			"translation":[
				0,
				0,
				-0.04999987781047821
			]
		},
		{
			"name":"center_engine_point",
			"scale":[
				0.07470583915710449,
				0.07470583915710449,
				0.07470583915710449
			],
			"translation":[
				0,
				0,
				-2
			]
		},
		{
			"name":"center_engine_thruster",
			"scale":[
				0.2614704370498657,
				0.2614704370498657,
				0.2614704370498657
			],
			"translation":[
				0,
				0,
				0.8700001239776611
			]
		},
		{
			"name":"left_engine_body",
			"rotation":[
				0,
				0.25584131479263306,
				0,
				0.9667187929153442
			],
			"scale":[
				0.18078814446926117,
				0.18078814446926117,
				0.18078814446926117
			],
			"translation":[
				-0.5,
				0,
				0.2000001072883606
			]
		},
		{
			"name":"left_engine_point",
			"scale":[
				0.07470583915710449,
				0.07470583915710449,
				0.07470583915710449
			],
			"translation":[
				-0.5,
				0,
				-0.6999999284744263
			]
		},
		{
			"name":"left_engine_thruster",
			"scale":[
				0.16435284912586212,
				0.16435284912586212,
				0.16435284912586212
			],
			"translation":[
				-0.5,
				0,
				0.9400001168251038
			]
		},
		{
			"name":"left_wing",
			"scale":[
				0.07470583915710449,
				0.07470583915710449,
				0.07470583915710449
			],
			"translation":[
				-1,
				0,
				0.5000001192092896
			]
		},
		{
			"name":"right_engine_body",
			"rotation":[
				0,
				-0.26104849576950073,
				0,
				0.9653257727622986
			],
			"scale":[
				0.18078815937042236,
				0.18078814446926117,
				0.18078815937042236
			],
			"translation":[
				0.5,
				0,
				0.2000001072883606
			]
		},
		{
			"name":"right_engine_point",
			"scale":[
				0.07470583915710449,
				0.07470583915710449,
				0.07470583915710449
			],
			"translation":[
				0.5,
				0,
				-0.6999999284744263
			]
		},
		{
			"name":"right_engine_thruster",
			"scale":[
				0.16435284912586212,
				0.16435284912586212,
				0.16435284912586212
			],
			"translation":[
				0.5,
				0,
				0.9400001168251038
			]
		},
		{
			"name":"right_wing",
			"scale":[
				0.07470583915710449,
				0.07470583915710449,
				0.07470583915710449
			],
			"translation":[
				1,
				0,
				0.5000001192092896
			]
		}
	],
	"materials":[
		{
			"doubleSided":true,
			"name":"Body",
			"pbrMetallicRoughness":{
				"baseColorFactor":[
					0.800000011920929,
					0.800000011920929,
					0.800000011920929,
					1
				],
				"metallicFactor":0,
				"roughnessFactor":0.5
			}
		},
		{
			"doubleSided":true,
			"name":"Wing Engines",
			"pbrMetallicRoughness":{
				"baseColorFactor":[
					0.800000011920929,
					0.800000011920929,
					0.800000011920929,
					1
				],
				"metallicFactor":0,
				"roughnessFactor":0.5
			}
		},
		{
			"doubleSided":true,
			"name":"Core Engine",
			"pbrMetallicRoughness":{
				"baseColorFactor":[
					0.800000011920929,
					0.800000011920929,
					0.800000011920929,
					1
				],
				"metallicFactor":0,
				"roughnessFactor":0.5
			}
		},
		{
			"doubleSided":true,
			"name":"Thrusters",
			"pbrMetallicRoughness":{
				"baseColorFactor":[
					0.800000011920929,
					0.800000011920929,
					0.800000011920929,
					1
				],
				"metallicFactor":0,
				"roughnessFactor":0.5
			}
		}
	],
	"meshes":[
		{
			"name":"Cylinder.001",
			"primitives":[
				{
					"attributes":{
						"COLOR_0":0,
						"POSITION":1,
						"NORMAL":2,
						"TEXCOORD_0":3
					},
					"indices":4,
					"material":0
				},
				{
					"attributes":{
						"COLOR_0":5,
						"POSITION":6,
						"NORMAL":7,
						"TEXCOORD_0":8
					},
					"indices":9,
					"material":1
				},
				{
					"attributes":{
						"COLOR_0":10,
						"POSITION":11,
						"NORMAL":12,
						"TEXCOORD_0":13
					},
					"indices":14,
					"material":2
				},
				{
					"attributes":{
						"COLOR_0":15,
						"POSITION":16,
						"NORMAL":17,
						"TEXCOORD_0":18
					},
					"indices":19,
					"material":3
				}
			]
		}
	],
	"accessors":[
		{
			"bufferView":0,
			"componentType":5123,
			"count":56,
			"normalized":true,
			"type":"VEC4"
		},
		{
			"bufferView":1,
			"componentType":5126,
			"count":56,
			"max":[
				0.9969084858894348,
				0.9407415986061096,
				0.1594223529100418
			],
			"min":[
				-0.9969084858894348,
				-1.9986848831176758,
				-0.1594223529100418
			],
			"type":"VEC3"
		},
		{
			"bufferView":2,
			"componentType":5126,
			"count":56,
			"type":"VEC3"
		},
		{
			"bufferView":3,
			"componentType":5126,
			"count":56,
			"type":"VEC2"
		},
		{
			"bufferView":4,
			"componentType":5123,
			"count":72,
			"type":"SCALAR"
		},
		{
			"bufferView":5,
			"componentType":5123,
			"count":156,
			"normalized":true,
			"type":"VEC4"
		},
		{
			"bufferView":6,
			"componentType":5126,
			"count":156,
			"max":[
				0.6484406590461731,
				0.9985237717628479,
				0.14616070687770844
			],
			"min":[
				-0.6484406590461731,
				-0.6998472809791565,
				-0.14616073668003082
			],
			"type":"VEC3"
		},
		{
			"bufferView":7,
			"componentType":5126,
			"count":156,
			"type":"VEC3"
		},
		{
			"bufferView":8,
			"componentType":5126,
			"count":156,
			"type":"VEC2"
		},
		{
			"bufferView":9,
			"componentType":5123,
			"count":204,
			"type":"SCALAR"
		},
		{
			"bufferView":10,
			"componentType":5123,
			"count":72,
			"normalized":true,
			"type":"VEC4"
		},
		{
			"bufferView":11,
			"componentType":5126,
			"count":72,
			"max":[
				0.22526206076145172,
				0.9243853092193604,
				0.22545823454856873
			],
			"min":[
				-0.2252620905637741,
				-1.9986848831176758,
				-0.2254582643508911
			],
			"type":"VEC3"
		},
		{
			"bufferView":12,
			"componentType":5126,
			"count":72,
			"type":"VEC3"
		},
		{
			"bufferView":13,
			"componentType":5126,
			"count":72,
			"type":"VEC2"
		},
		{
			"bufferView":14,
			"componentType":5123,
			"count":96,
			"type":"SCALAR"
		},
		{
			"bufferView":15,
			"componentType":5123,
			"count":24,
			"normalized":true,
			"type":"VEC4"
		},
		{
			"bufferView":16,
			"componentType":5126,
			"count":24,
			"max":[
				0.5964354276657104,
				0.9985237717628479,
				0.14647769927978516
			],
			"min":[
				-0.5964354276657104,
				0.9243853092193604,
				-0.14647769927978516
			],
			"type":"VEC3"
		},
		{
			"bufferView":17,
			"componentType":5126,
			"count":24,
			"type":"VEC3"
		},
		{
			"bufferView":18,
			"componentType":5126,
			"count":24,
			"type":"VEC2"
		},
		{
			"bufferView":19,
			"componentType":5123,
			"count":54,
			"type":"SCALAR"
		}
	],
	"bufferViews":[
		{
			"buffer":0,
			"byteLength":448,
			"byteOffset":0,
			"target":34962
		},
		{
			"buffer":0,
			"byteLength":672,
			"byteOffset":448,
			"target":34962
		},
		{
			"buffer":0,
			"byteLength":672,
			"byteOffset":1120,
			"target":34962
		},
		{
			"buffer":0,
			"byteLength":448,
			"byteOffset":1792,
			"target":34962
		},
		{
			"buffer":0,
			"byteLength":144,
			"byteOffset":2240,
			"target":34963
		},
		{
			"buffer":0,
			"byteLength":1248,
			"byteOffset":2384,
			"target":34962
		},
		{
			"buffer":0,
			"byteLength":1872,
			"byteOffset":3632,
			"target":34962
		},
		{
			"buffer":0,
			"byteLength":1872,
			"byteOffset":5504,
			"target":34962
		},
		{
			"buffer":0,
			"byteLength":1248,
			"byteOffset":7376,
			"target":34962
		},
		{
			"buffer":0,
			"byteLength":408,
			"byteOffset":8624,
			"target":34963
		},
		{
			"buffer":0,
			"byteLength":576,
			"byteOffset":9032,
			"target":34962
		},
		{
			"buffer":0,
			"byteLength":864,
			"byteOffset":9608,
			"target":34962
		},
		{
			"buffer":0,
			"byteLength":864,
			"byteOffset":10472,
			"target":34962
		},
		{
			"buffer":0,
			"byteLength":576,
			"byteOffset":11336,
			"target":34962
		},
		{
			"buffer":0,
			"byteLength":192,
			"byteOffset":11912,
			"target":34963
		},
		{
			"buffer":0,
			"byteLength":192,
			"byteOffset":12104,
			"target":34962
		},
		{
			"buffer":0,
			"byteLength":288,
			"byteOffset":12296,
			"target":34962
		},
		{
			"buffer":0,
			"byteLength":288,
			"byteOffset":12584,
			"target":34962
		},
		{
			"buffer":0,
			"byteLength":192,
			"byteOffset":12872,
			"target":34962
		},
		{
			"buffer":0,
			"byteLength":108,
			"byteOffset":13064,
			"target":34963
		}
	],
	"buffers":[
		{
			"byteLength":13172,
			"uri":"data:application/octet-stream;base64,"
		}
	]
}
